<?xml version="1.0" encoding="UTF-8"?>
<svg version="1.1" xmlns="http://www.w3.org/2000/svg" width="500" height="500">
<path d="M0 0 C165 0 330 0 500 0 C500 165 500 330 500 500 C335 500 170 500 0 500 C0 335 0 170 0 0 Z " fill="#000000" transform="translate(0,0)"/>
<path d="M0 0 C0.87807312 0.00021149 1.75614624 0.00042297 2.66082764 0.00064087 C30.54508795 0.0675286 59.96011073 4.06764089 81.625 23.375 C82.38425781 24.01824219 83.14351562 24.66148437 83.92578125 25.32421875 C93.17884352 33.7375073 97.25358343 43.0322509 98.625 55.375 C89.715 55.375 80.805 55.375 71.625 55.375 C70.635 53.065 69.645 50.755 68.625 48.375 C59.71207363 34.92286445 42.62509715 29.63859061 27.53759766 26.56005859 C0.94727145 22.03352839 -29.59757727 23.19554926 -52.94921875 37.61328125 C-61.83569837 44.06706919 -66.89045977 52.84224826 -69.375 63.375 C-69.64956095 66.67183799 -69.65492382 69.9434184 -69.625 73.25 C-69.63273437 74.09691406 -69.64046875 74.94382812 -69.6484375 75.81640625 C-69.61207369 87.68919156 -66.43520369 99.37006603 -58.125 108.25 C-50.22055514 115.34329004 -41.50210786 118.62393527 -31.375 121.375 C-30.116875 121.766875 -28.85875 122.15875 -27.5625 122.5625 C-2.23009778 129.019779 32.97822444 126.66764603 55.78515625 113.55859375 C62.35268429 109.18318812 66.18192482 104.42910525 69.625 97.375 C70.615 95.395 70.615 95.395 71.625 93.375 C80.535 93.375 89.445 93.375 98.625 93.375 C96.00186267 105.179118 92.69769811 114.31953864 84.625 123.375 C84.11453125 123.97828125 83.6040625 124.5815625 83.078125 125.203125 C67.52826059 142.29257995 40.44715976 148.27989148 18.36352539 149.49993896 C12.86785729 149.7017298 7.37368146 149.71255954 1.875 149.6875 C1.04216492 149.68567719 0.20932983 149.68385437 -0.64874268 149.68197632 C-13.0723969 149.63624307 -25.24413158 149.32144091 -37.375 146.375 C-38.07093262 146.20871094 -38.76686523 146.04242188 -39.48388672 145.87109375 C-58.20186331 141.18400478 -75.14197843 131.59197088 -85.84765625 115.1015625 C-96.39260735 96.27707178 -98.98556144 72.811699 -93.6875 51.8125 C-90.50523697 42.07655541 -86.05387794 34.12830613 -79.375 26.375 C-78.86453125 25.76914063 -78.3540625 25.16328125 -77.828125 24.5390625 C-68.4924592 14.32528952 -55.15570724 8.72763123 -42.1875 4.75 C-41.52911133 4.5435083 -40.87072266 4.3370166 -40.19238281 4.12426758 C-27.00976295 0.25654852 -13.61987179 -0.0302963 0 0 Z " fill="#FBFBFB" transform="translate(159.375,165.625)"/>
<path d="M0 0 C62.04 0 124.08 0 188 0 C188 8.91 188 17.82 188 27 C161.6 27 135.2 27 108 27 C108 72.87 108 118.74 108 166 C98.76 166 89.52 166 80 166 C80 120.13 80 74.26 80 27 C53.6 27 27.2 27 0 27 C0 18.09 0 9.18 0 0 Z " fill="#FBFBFB" transform="translate(256,225)"/>
<path d="M0 0 C0.69480469 -0.02449219 1.38960937 -0.04898438 2.10546875 -0.07421875 C7.27820068 -0.10344322 10.16789403 1.10300491 14.125 4.375 C17.23527212 9.04040818 16.73036455 13.91195405 16.125 19.375 C14.04672381 23.08620749 12.04516808 24.86423755 8.125 26.375 C5.44987148 26.61922617 2.92347611 26.74509454 0.25 26.75 C-0.44480469 26.77449219 -1.13960937 26.79898438 -1.85546875 26.82421875 C-7.02202717 26.85340835 -9.90994748 25.62514154 -13.875 22.375 C-16.50956197 18.1836514 -16.5690955 13.18288103 -15.875 8.375 C-12.06575864 0.89256161 -7.98768986 0.01465631 0 0 Z " fill="#030303" transform="translate(235.875,227.625)"/>
<path d="M0 0 C1.2890625 0.00128906 2.578125 0.00257813 3.90625 0.00390625 C8.52215377 0.56082507 10.86860938 2.00782145 14.30078125 5.015625 C16.24143821 8.93486708 15.81142191 12.8851856 15.6875 17.1875 C15.66719727 18.51974609 15.66719727 18.51974609 15.64648438 19.87890625 C15.61121309 22.06572578 15.56192752 24.25129966 15.5 26.4375 C14.84 26.4375 14.18 26.4375 13.5 26.4375 C13.005 23.9625 13.005 23.9625 12.5 21.4375 C11.736875 22.076875 10.97375 22.71625 10.1875 23.375 C5.81203484 26.73291512 1.81012923 26.67913529 -3.5 26.75 C-4.22445312 26.77900391 -4.94890625 26.80800781 -5.6953125 26.83789062 C-10.99833798 26.90148779 -10.99833798 26.90148779 -13.4765625 24.609375 C-14.85690723 21.68009381 -14.9083673 19.63637721 -14.5 16.4375 C-12.64657225 13.87800454 -11.56243607 13.45831202 -8.5 12.4375 C-6.94821071 12.22566292 -5.39111328 12.05130063 -3.83203125 11.90234375 C-2.49301758 11.77182617 -2.49301758 11.77182617 -1.12695312 11.63867188 C0.26620117 11.5081543 0.26620117 11.5081543 1.6875 11.375 C2.62787109 11.28412109 3.56824219 11.19324219 4.53710938 11.09960938 C6.8577922 10.87578717 9.17873689 10.65520754 11.5 10.4375 C11.83 9.4475 12.16 8.4575 12.5 7.4375 C8.93286611 3.62435688 7.02227903 2.51236618 1.6875 2.25 C-2.05896641 2.31886887 -5.08586782 2.77013312 -8.5 4.4375 C-10.25322937 6.96938648 -10.25322937 6.96938648 -11.5 9.4375 C-12.16 9.4375 -12.82 9.4375 -13.5 9.4375 C-13.22383203 6.12348435 -12.76579784 4.71127676 -10.41796875 2.29296875 C-6.71796306 -0.05977918 -4.35644835 -0.06534673 0 0 Z " fill="#070707" transform="translate(123.5,227.5625)"/>
<path d="M0 0 C0.99 0 1.98 0 3 0 C3 0.99 3 1.98 3 3 C3.66 3 4.32 3 5 3 C5 3.66 5 4.32 5 5 C5.66 5 6.32 5 7 5 C7 5.66 7 6.32 7 7 C7.66 7 8.32 7 9 7 C9 7.99 9 8.98 9 10 C9.99 10 10.98 10 12 10 C12 10.66 12 11.32 12 12 C12.66 12 13.32 12 14 12 C14 12.66 14 13.32 14 14 C14.66 14 15.32 14 16 14 C16 14.66 16 15.32 16 16 C16.66 16 17.32 16 18 16 C18 16.99 18 17.98 18 19 C18.66 19.33 19.32 19.66 20 20 C18.02 20 16.04 20 14 20 C14 22.31 14 24.62 14 27 C14.66 27 15.32 27 16 27 C16 28.65 16 30.3 16 32 C16.66 32 17.32 32 18 32 C18 33.32 18 34.64 18 36 C18.99 36 19.98 36 21 36 C21 37.65 21 39.3 21 41 C19.35 41 17.7 41 16 41 C16 39.35 16 37.7 16 36 C15.34 36 14.68 36 14 36 C14 34.68 14 33.36 14 32 C13.34 32 12.68 32 12 32 C12 30.35 12 28.7 12 27 C11.01 27 10.02 27 9 27 C9 25.68 9 24.36 9 23 C8.34 23 7.68 23 7 23 C7 23.66 7 24.32 7 25 C6.34 25 5.68 25 5 25 C5 25.66 5 26.32 5 27 C4.34 27 3.68 27 3 27 C3 27.99 3 28.98 3 30 C2.01 30 1.02 30 0 30 C0 20.1 0 10.2 0 0 Z " fill="#EBEBEB" transform="translate(445,394)"/>
<path d="M0 0 C1.2890625 0.00128906 2.578125 0.00257813 3.90625 0.00390625 C8.52215377 0.56082507 10.86860938 2.00782145 14.30078125 5.015625 C16.24143821 8.93486708 15.81142191 12.8851856 15.6875 17.1875 C15.66719727 18.51974609 15.66719727 18.51974609 15.64648438 19.87890625 C15.61121309 22.06572578 15.56192752 24.25129966 15.5 26.4375 C14.84 26.4375 14.18 26.4375 13.5 26.4375 C13.005 23.9625 13.005 23.9625 12.5 21.4375 C11.736875 22.076875 10.97375 22.71625 10.1875 23.375 C5.81203484 26.73291512 1.81012923 26.67913529 -3.5 26.75 C-4.22445312 26.77900391 -4.94890625 26.80800781 -5.6953125 26.83789062 C-10.99833798 26.90148779 -10.99833798 26.90148779 -13.4765625 24.609375 C-14.85690723 21.68009381 -14.9083673 19.63637721 -14.5 16.4375 C-12.64657225 13.87800454 -11.56243607 13.45831202 -8.5 12.4375 C-6.94821071 12.22566292 -5.39111328 12.05130063 -3.83203125 11.90234375 C-2.49301758 11.77182617 -2.49301758 11.77182617 -1.12695312 11.63867188 C0.26620117 11.5081543 0.26620117 11.5081543 1.6875 11.375 C2.62787109 11.28412109 3.56824219 11.19324219 4.53710938 11.09960938 C6.8577922 10.87578717 9.17873689 10.65520754 11.5 10.4375 C11.83 9.4475 12.16 8.4575 12.5 7.4375 C8.93286611 3.62435688 7.02227903 2.51236618 1.6875 2.25 C-2.05896641 2.31886887 -5.08586782 2.77013312 -8.5 4.4375 C-10.25322937 6.96938648 -10.25322937 6.96938648 -11.5 9.4375 C-12.16 9.4375 -12.82 9.4375 -13.5 9.4375 C-13.22383203 6.12348435 -12.76579784 4.71127676 -10.41796875 2.29296875 C-6.71796306 -0.05977918 -4.35644835 -0.06534673 0 0 Z M3.859375 12.8671875 C1.68395587 13.23650284 -0.493076 13.59649 -2.671875 13.9453125 C-3.64640625 14.10773438 -4.6209375 14.27015625 -5.625 14.4375 C-6.95917969 14.6540625 -6.95917969 14.6540625 -8.3203125 14.875 C-10.69115582 15.28999914 -10.69115582 15.28999914 -12.5 17.4375 C-13.08350505 19.89459375 -13.08350505 19.89459375 -12.5 22.4375 C-9.21808951 25.41173138 -6.06566607 25.91337182 -1.6875 25.72265625 C3.63319321 25.02906589 8.04376013 23.75166768 12.0625 20.125 C13.74238301 16.98434916 13.82670937 14.94962572 13.5 11.4375 C10.30632345 11.4375 6.99757882 12.33414331 3.859375 12.8671875 Z " fill="#D2D2D2" transform="translate(123.5,227.5625)"/>
<path d="M0 0 C0.69480469 -0.02449219 1.38960937 -0.04898438 2.10546875 -0.07421875 C7.27820068 -0.10344322 10.16789403 1.10300491 14.125 4.375 C17.23527212 9.04040818 16.73036455 13.91195405 16.125 19.375 C14.04672381 23.08620749 12.04516808 24.86423755 8.125 26.375 C5.44987148 26.61922617 2.92347611 26.74509454 0.25 26.75 C-0.44480469 26.77449219 -1.13960937 26.79898438 -1.85546875 26.82421875 C-7.02202717 26.85340835 -9.90994748 25.62514154 -13.875 22.375 C-16.50956197 18.1836514 -16.5690955 13.18288103 -15.875 8.375 C-12.06575864 0.89256161 -7.98768986 0.01465631 0 0 Z M-12.8125 6 C-14.48864359 9.74667391 -14.42229094 13.34232992 -13.875 17.375 C-12.48519502 20.34412882 -11.17842972 22.07157028 -8.875 24.375 C-2.55203048 26.23469692 4.12921031 26.10035895 10.125 23.375 C12.89872086 21.168171 14.00408741 20.02935046 14.65625 16.5 C14.6459375 15.46875 14.635625 14.4375 14.625 13.375 C14.6353125 12.34375 14.645625 11.3125 14.65625 10.25 C14.00408741 6.72064954 12.89872086 5.581829 10.125 3.375 C2.17254386 -0.23975279 -6.07391814 0.34828618 -12.8125 6 Z " fill="#D9D9D9" transform="translate(235.875,227.625)"/>
<path d="M0 0 C0.05395478 1.62463842 0.09277195 3.24978541 0.125 4.875 C0.14820313 5.77992188 0.17140625 6.68484375 0.1953125 7.6171875 C0 10 0 10 -2 12 C-4.68839385 12.26991906 -7.29141936 12.08737357 -10 12 C-10.33 11.34 -10.66 10.68 -11 10 C-8.36 10 -5.72 10 -3 10 C-4.11375 9.896875 -5.2275 9.79375 -6.375 9.6875 C-8.169375 9.3471875 -8.169375 9.3471875 -10 9 C-12 6 -12 6 -11.8125 3.4375 C-9.7865935 -2.64021951 -5.00735222 -0.82087741 0 0 Z " fill="#151515" transform="translate(408,308)"/>
<path d="M0 0 C0.66 0 1.32 0 2 0 C2 1.65 2 3.3 2 5 C5.96 5 9.92 5 14 5 C14 5.66 14 6.32 14 7 C10.04 7 6.08 7 2 7 C2.08684744 10.10554454 2.19370554 13.20815428 2.3125 16.3125 C2.33505859 17.19357422 2.35761719 18.07464844 2.38085938 18.98242188 C2.41630859 19.82998047 2.45175781 20.67753906 2.48828125 21.55078125 C2.51446533 22.33106689 2.54064941 23.11135254 2.56762695 23.9152832 C3.10052025 26.48466541 3.94916343 27.40602054 6 29 C8.05363606 29.3606631 8.05363606 29.3606631 10.1875 29.1875 C11.445625 29.125625 12.70375 29.06375 14 29 C14 29.66 14 30.32 14 31 C12.41906283 31.1357675 10.83473048 31.23234745 9.25 31.3125 C8.36828125 31.37050781 7.4865625 31.42851562 6.578125 31.48828125 C4 31 4 31 1.6875 29.09375 C-0.6902218 24.73459336 -0.43906103 21.06309302 -0.25 16.1875 C-0.23195312 15.30384766 -0.21390625 14.42019531 -0.1953125 13.50976562 C-0.14838513 11.33937457 -0.07664731 9.16954481 0 7 C-1.65 7 -3.3 7 -5 7 C-5 6.34 -5 5.68 -5 5 C-3.35 5 -1.7 5 0 5 C0 3.35 0 1.7 0 0 Z " fill="#C8C8C8" transform="translate(201,223)"/>
<path d="M0 0 C0.66 0 1.32 0 2 0 C2.33 1.65 2.66 3.3 3 5 C3.78375 4.360625 4.5675 3.72125 5.375 3.0625 C9.13780955 0.10600678 10.89896417 -0.1174539 15.625 -0.0625 C17.12933594 -0.04896484 17.12933594 -0.04896484 18.6640625 -0.03515625 C19.43492187 -0.02355469 20.20578125 -0.01195312 21 0 C21 0.33 21 0.66 21 1 C20.26394531 1.09796875 19.52789062 1.1959375 18.76953125 1.296875 C11.0584186 2.38577739 11.0584186 2.38577739 5 7 C2.97287879 11.08351492 2.62865083 14.78906027 2.375 19.3125 C2.30023438 20.56675781 2.22546875 21.82101563 2.1484375 23.11328125 C2.09945312 24.06589844 2.05046875 25.01851562 2 26 C1.34 26 0.68 26 0 26 C0 17.42 0 8.84 0 0 Z " fill="#D1D1D1" transform="translate(149,228)"/>
<path d="M0 0 C0.98150241 2.94450722 1.1613058 4.93518979 1 8 C0 9 0 9 -2.06640625 9.09765625 C-2.89011719 9.08605469 -3.71382813 9.07445312 -4.5625 9.0625 C-5.38878906 9.05347656 -6.21507812 9.04445313 -7.06640625 9.03515625 C-7.70449219 9.02355469 -8.34257812 9.01195312 -9 9 C-9.33 8.01 -9.66 7.02 -10 6 C-9.34 6 -8.68 6 -8 6 C-8 6.66 -8 7.32 -8 8 C-5.69 8 -3.38 8 -1 8 C-1 7.01 -1 6.02 -1 5 C-2.3921875 5.061875 -2.3921875 5.061875 -3.8125 5.125 C-7 5 -7 5 -10 3 C-9.67 2.01 -9.34 1.02 -9 0 C-5.93109813 -1.53445094 -3.29905734 -0.54984289 0 0 Z " fill="#4F4F4F" transform="translate(407,332)"/>
<path d="M0 0 C0.33 0 0.66 0 1 0 C1 1.98 1 3.96 1 6 C1.66 6 2.32 6 3 6 C3 7.65 3 9.3 3 11 C3.66 11 4.32 11 5 11 C5 12.32 5 13.64 5 15 C5.99 15 6.98 15 8 15 C8 16.65 8 18.3 8 20 C6.35 20 4.7 20 3 20 C3 18.35 3 16.7 3 15 C2.34 15 1.68 15 1 15 C1 13.68 1 12.36 1 11 C0.34 11 -0.32 11 -1 11 C-0.67 7.37 -0.34 3.74 0 0 Z " fill="#E2E2E2" transform="translate(458,415)"/>
<path d="M0 0 C1.2890625 0.00128906 2.578125 0.00257813 3.90625 0.00390625 C7.64945383 0.45553193 9.53833657 1.15723377 12.5 3.4375 C13.49 4.9225 13.49 4.9225 14.5 6.4375 C13.51 6.9325 13.51 6.9325 12.5 7.4375 C11.6028125 6.4784375 11.6028125 6.4784375 10.6875 5.5 C7.24445927 2.25370445 4.17941822 2.20419268 -0.4375 2.2890625 C-3.46075497 2.50664524 -5.77406297 3.10622843 -8.5 4.4375 C-10.25322937 6.96938648 -10.25322937 6.96938648 -11.5 9.4375 C-12.16 9.4375 -12.82 9.4375 -13.5 9.4375 C-13.22383203 6.12348435 -12.76579784 4.71127676 -10.41796875 2.29296875 C-6.71796306 -0.05977918 -4.35644835 -0.06534673 0 0 Z " fill="#D9D9D9" transform="translate(123.5,227.5625)"/>
<path d="M0 0 C0.80824219 0.10183594 1.61648437 0.20367187 2.44921875 0.30859375 C3.06410156 0.39238281 3.67898437 0.47617188 4.3125 0.5625 C4.3125 0.8925 4.3125 1.2225 4.3125 1.5625 C3.53003906 1.69527344 2.74757813 1.82804688 1.94140625 1.96484375 C0.92949219 2.14144531 -0.08242187 2.31804687 -1.125 2.5 C-2.13433594 2.67402344 -3.14367187 2.84804687 -4.18359375 3.02734375 C-6.6162438 3.31001097 -6.6162438 3.31001097 -7.6875 4.5625 C-8.10467279 6.97787838 -8.10467279 6.97787838 -7.6875 9.5625 C-5.7870533 11.40565671 -5.7870533 11.40565671 -3.6875 12.5625 C-5.0075 12.8925 -6.3275 13.2225 -7.6875 13.5625 C-9.91829726 11.14580297 -10.65690652 9.81234673 -11.0625 6.5 C-10.6875 3.5625 -10.6875 3.5625 -9.375 1.75 C-6.15862546 -0.51337468 -3.74139387 -0.4880079 0 0 Z " fill="#BBBBBB" transform="translate(119.6875,240.4375)"/>
<path d="M0 0 C0.33 0 0.66 0 1 0 C1.05395478 1.62463842 1.09277195 3.24978541 1.125 4.875 C1.14820313 5.77992188 1.17140625 6.68484375 1.1953125 7.6171875 C1 10 1 10 -1 12 C-3.68839385 12.26991906 -6.29141936 12.08737357 -9 12 C-9.33 11.34 -9.66 10.68 -10 10 C-7.36 10 -4.72 10 -2 10 C-3.11375 9.896875 -4.2275 9.79375 -5.375 9.6875 C-7.169375 9.3471875 -7.169375 9.3471875 -9 9 C-11 6 -11 6 -10.625 3.3125 C-10.41875 2.549375 -10.2125 1.78625 -10 1 C-9.67 1 -9.34 1 -9 1 C-8.67 2.98 -8.34 4.96 -8 7 C-6.02 7 -4.04 7 -2 7 C-1.855625 6.401875 -1.71125 5.80375 -1.5625 5.1875 C-1.1127561 3.43849596 -0.57107659 1.71322977 0 0 Z " fill="#7E7E7E" transform="translate(407,308)"/>
<path d="M0 0 C1.08087891 -0.0309375 1.08087891 -0.0309375 2.18359375 -0.0625 C5.53290073 -0.08717261 7.73299026 0.01308446 10.6328125 1.765625 C11.12523437 2.25546875 11.61765625 2.7453125 12.125 3.25 C11.135 3.745 11.135 3.745 10.125 4.25 C9.25875 3.940625 8.3925 3.63125 7.5 3.3125 C0.29754313 1.04505987 -4.32729466 2.1687269 -10.875 5.25 C-11.865 5.25 -12.855 5.25 -13.875 5.25 C-9.25121983 0.47209382 -6.53000325 0.04623011 0 0 Z " fill="#CECECE" transform="translate(235.875,227.75)"/>
<path d="M0 0 C0.53625 0.78375 1.0725 1.5675 1.625 2.375 C4.30242842 5.33426299 6.18433025 6.04608256 10 7 C8.02 7.99 8.02 7.99 6 9 C0.125 5.375 0.125 5.375 -1 2 C-0.67 1.34 -0.34 0.68 0 0 Z " fill="#C1C1C1" transform="translate(222,245)"/>
<path d="M0 0 C2 2 2 2 2.9375 4.5 C3.8583474 7.30191747 3.8583474 7.30191747 7 9 C5.68 9.33 4.36 9.66 3 10 C0.64551835 7.44931155 0.01672076 6.28982642 -0.1875 2.75 C-0.125625 1.8425 -0.06375 0.935 0 0 Z " fill="#C9C9C9" transform="translate(109,244)"/>
</svg>
